<svg xmlns="http://www.w3.org/2000/svg" width="295.001" height="610.001" viewBox="0 0 295.001 610.001">
    <path fill="#0a1018" d="M-5923-1730a46.694 46.694 0 0 1-18.294-3.693 46.823 46.823 0 0 1-14.939-10.073 46.864 46.864 0 0 1-10.074-14.939A46.732 46.732 0 0 1-5970-1777v-516a46.72 46.72 0 0 1 3.693-18.294 46.847 46.847 0 0 1 10.074-14.939 46.823 46.823 0 0 1 14.939-10.073A46.7 46.7 0 0 1-5923-2340h201a46.706 46.706 0 0 1 18.3 3.695 46.85 46.85 0 0 1 14.939 10.073 46.835 46.835 0 0 1 10.073 14.939A46.694 46.694 0 0 1-5675-2293v516a46.706 46.706 0 0 1-3.693 18.3 46.851 46.851 0 0 1-10.073 14.939 46.85 46.85 0 0 1-14.939 10.073A46.7 46.7 0 0 1-5722-1730zm-15.624-596.25a34.87 34.87 0 0 0-11.125 7.5 34.892 34.892 0 0 0-7.5 11.125A34.779 34.779 0 0 0-5960-2294v517a34.8 34.8 0 0 0 2.751 13.625 34.908 34.908 0 0 0 7.5 11.125 34.858 34.858 0 0 0 11.125 7.5A34.762 34.762 0 0 0-5925-1742h204a34.759 34.759 0 0 0 13.624-2.751 34.842 34.842 0 0 0 11.125-7.5 34.868 34.868 0 0 0 7.5-11.125A34.768 34.768 0 0 0-5686-1777v-517a34.753 34.753 0 0 0-2.75-13.622 34.868 34.868 0 0 0-7.5-11.125 34.87 34.87 0 0 0-11.125-7.5A34.789 34.789 0 0 0-5721-2329h-28v12a13 13 0 0 1-13 13h-120a13 13 0 0 1-13-13v-12h-30a34.8 34.8 0 0 0-13.624 2.75z" transform="translate(5970 2340)"/>
</svg>
