<?xml version="1.0" standalone="no"?>
<!DOCTYPE svg PUBLIC "-//W3C//DTD SVG 20010904//EN"
 "http://www.w3.org/TR/2001/REC-SVG-20010904/DTD/svg10.dtd">
<svg version="1.0" xmlns="http://www.w3.org/2000/svg"
 width="100.000000pt" height="100.000000pt" viewBox="0 0 100.000000 100.000000"
 preserveAspectRatio="xMidYMid meet">
<metadata>
Created by potrace 1.14, written by Peter Selinger 2001-2017
</metadata>
<g transform="translate(0.000000,100.000000) scale(0.100000,-0.100000)"
fill="#000000" stroke="none">
<path d="M0 500 l0 -500 500 0 500 0 0 500 0 500 -500 0 -500 0 0 -500z m693
110 c-57 -54 -103 -103 -103 -109 0 -6 14 -35 30 -64 17 -30 30 -57 30 -60 0
-4 -15 -7 -32 -7 -27 0 -37 7 -57 37 l-23 36 -60 -66 c-58 -65 -61 -67 -109
-67 -27 0 -49 4 -49 8 0 5 41 46 90 91 50 45 90 87 90 93 0 6 -18 42 -39 79
l-40 69 39 0 c35 0 41 -4 61 -40 13 -22 25 -40 29 -40 3 0 37 32 75 70 68 68
71 70 120 70 l50 -1 -102 -99z"/>
</g>
</svg>
